<svg xmlns="http://www.w3.org/2000/svg" xmlns:xlink="http://www.w3.org/1999/xlink" stroke="null" y="0" x="0" id="svg_2" viewBox="0 0 34 32" height="288" width="288">
    <path stroke="inherit" id="svg_3" d="m26.007,17.832l0.033,0.018l-0.07,-0.027c0.013,0 0.026,0.003 0.037,0.009zm0,0c0.01,0.008 0.022,0.012 0.035,0.014l-0.07,-0.027l0.035,0.013z" stroke-width="0.2"/>
    <path stroke="inherit" id="svg_4" d="m25.964,17.964c-0.025,0.087 -0.043,0.177 -0.057,0.267s-0.032,0.18 -0.057,0.267l-0.073,-0.02c0.025,-0.088 0.058,-0.173 0.094,-0.257s0.068,-0.169 0.094,-0.256l-0.001,-0.001zm0.001,0.001c-0.025,0.087 -0.043,0.177 -0.057,0.267s-0.032,0.179 -0.057,0.266l-0.073,-0.02c0.025,-0.087 0.058,-0.172 0.093,-0.256s0.068,-0.169 0.093,-0.256l0.001,-0.001z" stroke-width="0.2"/>
    <path stroke="inherit" id="svg_5" d="m23.919,23.335a0.56,0.56 0 0 1 -0.235,-0.137c-0.032,-0.033 -0.066,-0.064 -0.093,-0.101l-0.043,-0.054l-0.039,-0.057a3.168,3.168 0 0 1 -0.257,-0.485a7.758,7.758 0 0 1 -0.198,-0.513a13.302,13.302 0 0 1 -0.167,-0.524c-0.104,-0.351 -0.198,-0.706 -0.287,-1.061s-0.172,-0.712 -0.251,-1.07a93.328,93.328 0 0 1 -0.447,-2.152l-0.209,-1.079c-0.067,-0.36 -0.136,-0.72 -0.199,-1.081l0.068,-0.002l-0.002,0.014l0,-0.012c0.064,0.362 0.132,0.721 0.199,1.082l0.203,1.082c0.136,0.721 0.279,1.44 0.43,2.158c0.075,0.359 0.155,0.717 0.239,1.074s0.175,0.712 0.277,1.064c0.101,0.352 0.214,0.701 0.356,1.039c0.073,0.168 0.152,0.333 0.253,0.486l0.038,0.057l0.042,0.054c0.027,0.037 0.06,0.068 0.091,0.102a0.545,0.545 0 0 0 0.231,0.137l-0.001,0l0.084,-0.007c0.028,-0.002 0.054,-0.013 0.081,-0.018s0.053,-0.018 0.078,-0.029a0.406,0.406 0 0 0 0.075,-0.038c0.023,-0.015 0.049,-0.028 0.071,-0.045l0.066,-0.053c0.022,-0.017 0.04,-0.039 0.061,-0.058s0.04,-0.039 0.058,-0.061s0.073,-0.086 0.105,-0.132c0.016,-0.023 0.035,-0.045 0.048,-0.069l0.042,-0.074l0.042,-0.073c0.015,-0.024 0.026,-0.05 0.038,-0.075l0.074,-0.152l0.005,0.002c-0.049,0.1 -0.101,0.198 -0.159,0.292c-0.029,0.047 -0.06,0.093 -0.092,0.138s-0.067,0.088 -0.104,0.13c-0.018,0.021 -0.038,0.04 -0.057,0.06s-0.041,0.038 -0.061,0.056s-0.087,0.069 -0.135,0.097c-0.025,0.012 -0.048,0.028 -0.074,0.037a0.559,0.559 0 0 1 -0.078,0.028c-0.026,0.009 -0.054,0.013 -0.081,0.017s-0.055,0.004 -0.083,0.006l-0.003,0zm0.003,0c0.028,-0.002 0.056,-0.001 0.083,-0.007s0.055,-0.009 0.081,-0.018a0.559,0.559 0 0 0 0.078,-0.028c0.026,-0.01 0.049,-0.025 0.074,-0.037a0.923,0.923 0 0 0 0.135,-0.097c0.02,-0.019 0.042,-0.036 0.061,-0.056s0.039,-0.039 0.057,-0.061a1.644,1.644 0 0 0 0.196,-0.268c0.058,-0.095 0.109,-0.193 0.158,-0.292l0.005,0.003l-0.073,0.152c-0.013,0.025 -0.023,0.051 -0.038,0.075l-0.042,0.073l-0.042,0.074c-0.013,0.026 -0.032,0.047 -0.048,0.07c-0.032,0.047 -0.068,0.09 -0.104,0.133c-0.017,0.023 -0.038,0.042 -0.058,0.062s-0.039,0.041 -0.061,0.059l-0.066,0.053c-0.022,0.018 -0.048,0.031 -0.071,0.046s-0.049,0.028 -0.076,0.039c-0.026,0.011 -0.051,0.024 -0.08,0.03s-0.055,0.017 -0.083,0.019l-0.086,0.007l-0.001,0a0.56,0.56 0 0 1 -0.238,-0.138c-0.032,-0.033 -0.066,-0.065 -0.094,-0.102l-0.043,-0.054l-0.039,-0.057a3.242,3.242 0 0 1 -0.26,-0.486c-0.146,-0.337 -0.264,-0.686 -0.369,-1.038s-0.2,-0.707 -0.289,-1.063a39.644,39.644 0 0 1 -0.251,-1.072a84.103,84.103 0 0 1 -0.442,-2.157c-0.069,-0.36 -0.14,-0.72 -0.205,-1.082s-0.133,-0.723 -0.195,-1.084l-0.001,-0.006l0.001,-0.005l0.002,-0.012l0.035,-0.194l0.033,0.193c0.062,0.361 0.129,0.721 0.195,1.081l0.199,1.081c0.134,0.72 0.273,1.439 0.424,2.156c0.075,0.358 0.155,0.716 0.239,1.072s0.175,0.711 0.278,1.063c0.051,0.176 0.106,0.35 0.165,0.524c0.06,0.173 0.123,0.345 0.195,0.513c0.073,0.168 0.154,0.333 0.255,0.486l0.038,0.057l0.043,0.054c0.027,0.037 0.061,0.068 0.092,0.102a0.558,0.558 0 0 0 0.234,0.138l-0.001,-0.001z" stroke-width="0.2"/>
    <path stroke="inherit" id="svg_6" d="m14.964,23.335l-0.052,0.019l-0.055,0.008a0.554,0.554 0 0 1 -0.237,-0.139c-0.032,-0.033 -0.066,-0.065 -0.093,-0.103l-0.043,-0.054l-0.039,-0.058c-0.103,-0.154 -0.184,-0.321 -0.258,-0.491s-0.137,-0.344 -0.199,-0.518a14.113,14.113 0 0 1 -0.317,-1.064a44.55,44.55 0 0 1 -0.39,-1.619a99.775,99.775 0 0 1 -0.449,-2.175l-0.21,-1.09l-0.103,-0.545c-0.035,-0.183 -0.066,-0.364 -0.099,-0.547l0.064,0.001l-0.008,0.042l-0.008,0.041l0,-0.011c0.033,0.182 0.063,0.362 0.099,0.542l0.104,0.542l0.211,1.083c0.143,0.721 0.285,1.443 0.441,2.162c0.078,0.359 0.159,0.718 0.245,1.075s0.177,0.713 0.28,1.066c0.102,0.353 0.217,0.702 0.359,1.039c0.074,0.167 0.154,0.332 0.255,0.484c0.049,0.077 0.108,0.146 0.172,0.21c0.067,0.06 0.141,0.112 0.227,0.136l-0.004,-0.001a0.296,0.296 0 0 0 0.155,-0.054a0.63,0.63 0 0 0 0.125,-0.117c0.02,-0.021 0.037,-0.045 0.054,-0.068s0.034,-0.047 0.049,-0.072s0.061,-0.1 0.089,-0.151c0.111,-0.207 0.2,-0.425 0.281,-0.645l0.059,-0.166c0.021,-0.055 0.037,-0.111 0.053,-0.168l0.099,-0.339l0.196,-0.679l0.01,0.003c-0.116,0.433 -0.239,0.864 -0.39,1.286c-0.038,0.105 -0.078,0.21 -0.121,0.314s-0.089,0.206 -0.139,0.306c-0.024,0.051 -0.053,0.099 -0.08,0.148c-0.03,0.047 -0.057,0.096 -0.092,0.141c-0.017,0.022 -0.033,0.046 -0.051,0.067l-0.056,0.062c-0.02,0.019 -0.043,0.036 -0.064,0.055c-0.023,0.016 -0.048,0.029 -0.072,0.043l0.002,-0.001zm-0.002,0.001c0.024,-0.015 0.049,-0.027 0.072,-0.044c0.021,-0.018 0.043,-0.036 0.063,-0.055l0.056,-0.062c0.018,-0.021 0.034,-0.045 0.051,-0.067c0.034,-0.044 0.061,-0.094 0.091,-0.141c0.026,-0.049 0.055,-0.097 0.079,-0.148a6.561,6.561 0 0 0 0.258,-0.62c0.149,-0.422 0.271,-0.854 0.385,-1.287l0.01,0.003l-0.192,0.68l-0.095,0.34a2.055,2.055 0 0 1 -0.052,0.169c-0.018,0.056 -0.038,0.111 -0.058,0.167c-0.08,0.222 -0.167,0.441 -0.277,0.651c-0.028,0.052 -0.056,0.104 -0.089,0.154c-0.016,0.025 -0.032,0.05 -0.05,0.074s-0.035,0.048 -0.055,0.071s-0.082,0.088 -0.13,0.124a0.333,0.333 0 0 1 -0.173,0.062l-0.002,0l-0.002,-0.001a0.618,0.618 0 0 1 -0.244,-0.142a1.31,1.31 0 0 1 -0.179,-0.215a3.196,3.196 0 0 1 -0.264,-0.488c-0.147,-0.339 -0.266,-0.689 -0.371,-1.041s-0.201,-0.709 -0.289,-1.066a39.89,39.89 0 0 1 -0.249,-1.076a94.14,94.14 0 0 1 -0.446,-2.162l-0.207,-1.084l-0.102,-0.542c-0.035,-0.18 -0.066,-0.363 -0.097,-0.544l-0.001,-0.006l0.001,-0.005l0.008,-0.044l0.008,-0.042l0.034,-0.17l0.03,0.171l0.194,1.093l0.2,1.092c0.136,0.727 0.276,1.454 0.428,2.178a30.1,30.1 0 0 0 0.523,2.157c0.051,0.178 0.107,0.354 0.166,0.53c0.061,0.174 0.123,0.349 0.197,0.519s0.154,0.337 0.256,0.491l0.039,0.058l0.043,0.055c0.027,0.037 0.061,0.07 0.093,0.103a0.563,0.563 0 0 0 0.236,0.14l0.055,-0.008l0.052,-0.019l-0.004,-0.003z" stroke-width="0.2"/>
    <path stroke="inherit" id="svg_7" d="m5.744,23.335c-0.028,-0.03 -0.069,-0.043 -0.101,-0.067c-0.017,-0.011 -0.034,-0.023 -0.049,-0.036s-0.032,-0.026 -0.045,-0.041a0.965,0.965 0 0 1 -0.149,-0.193c-0.024,-0.033 -0.04,-0.071 -0.06,-0.106s-0.038,-0.072 -0.054,-0.109l-0.051,-0.111l-0.044,-0.114c-0.031,-0.075 -0.056,-0.153 -0.081,-0.23a3.91,3.91 0 0 1 -0.072,-0.233c-0.047,-0.156 -0.084,-0.315 -0.123,-0.473c-0.037,-0.159 -0.07,-0.318 -0.104,-0.477l-0.09,-0.48c-0.03,-0.16 -0.054,-0.321 -0.088,-0.48s-0.063,-0.318 -0.102,-0.476l-0.056,-0.237l-0.063,-0.235c-0.04,-0.158 -0.093,-0.311 -0.139,-0.466c-0.055,-0.152 -0.104,-0.307 -0.168,-0.456c-0.058,-0.152 -0.129,-0.297 -0.198,-0.443l-0.116,-0.213c-0.039,-0.071 -0.086,-0.137 -0.128,-0.205c-0.041,-0.07 -0.094,-0.131 -0.142,-0.196c-0.046,-0.066 -0.103,-0.123 -0.157,-0.183c-0.052,-0.062 -0.114,-0.112 -0.174,-0.166c-0.057,-0.057 -0.127,-0.097 -0.191,-0.145a0.631,0.631 0 0 0 -0.102,-0.062l-0.106,-0.057c-0.072,-0.035 -0.149,-0.058 -0.223,-0.088l0.009,0.001l-0.081,0l0.007,-0.061c0.079,0.027 0.161,0.048 0.238,0.08l0.113,0.054c0.038,0.018 0.076,0.035 0.11,0.06c0.143,0.087 0.275,0.191 0.391,0.31c0.119,0.117 0.222,0.248 0.318,0.384c0.045,0.07 0.094,0.137 0.135,0.209l0.122,0.217c0.073,0.149 0.147,0.297 0.207,0.451c0.067,0.152 0.118,0.309 0.174,0.464c0.026,0.078 0.049,0.158 0.073,0.236s0.049,0.158 0.069,0.238c0.043,0.159 0.085,0.319 0.12,0.48c0.039,0.16 0.071,0.322 0.103,0.484c0.034,0.161 0.059,0.324 0.088,0.486l0.087,0.485c0.03,0.161 0.065,0.321 0.099,0.482c0.039,0.159 0.073,0.32 0.119,0.477c0.021,0.079 0.043,0.158 0.069,0.236c0.025,0.078 0.048,0.156 0.079,0.232l0.043,0.115l0.049,0.112c0.016,0.037 0.033,0.074 0.053,0.11s0.036,0.073 0.059,0.106a1.05,1.05 0 0 0 0.187,0.231c0.015,0.012 0.03,0.025 0.047,0.035c0.032,0.025 0.068,0.033 0.108,0.075l-0.021,-0.01c0.054,-0.001 0.107,-0.023 0.154,-0.054s0.088,-0.074 0.127,-0.117a1.502,1.502 0 0 0 0.195,-0.297a5.15,5.15 0 0 0 0.343,-0.83l0.163,-0.517l0.192,-0.695l0.037,0.01c-0.061,0.231 -0.127,0.461 -0.196,0.689s-0.144,0.456 -0.227,0.68a5.176,5.176 0 0 1 -0.288,0.656a1.7,1.7 0 0 1 -0.199,0.298c-0.039,0.045 -0.083,0.087 -0.132,0.12s-0.107,0.056 -0.167,0.056zm0,0c0.06,-0.001 0.117,-0.025 0.166,-0.058s0.092,-0.076 0.13,-0.121c0.076,-0.092 0.138,-0.194 0.194,-0.3c0.111,-0.211 0.198,-0.434 0.279,-0.658c0.159,-0.45 0.285,-0.91 0.405,-1.372l0.037,0.01l-0.189,0.698l-0.16,0.518c-0.017,0.058 -0.038,0.116 -0.058,0.172a5.285,5.285 0 0 1 -0.285,0.667a2.483,2.483 0 0 1 -0.091,0.158a1.52,1.52 0 0 1 -0.108,0.149a0.663,0.663 0 0 1 -0.137,0.127a0.33,0.33 0 0 1 -0.182,0.063l-0.012,0l-0.009,-0.01c-0.017,-0.019 -0.062,-0.038 -0.096,-0.063a0.375,0.375 0 0 1 -0.051,-0.038a1.057,1.057 0 0 1 -0.2,-0.244c-0.024,-0.035 -0.04,-0.073 -0.061,-0.109s-0.038,-0.074 -0.054,-0.112l-0.05,-0.114l-0.044,-0.116c-0.031,-0.077 -0.055,-0.156 -0.081,-0.234c-0.027,-0.078 -0.049,-0.158 -0.071,-0.237c-0.047,-0.158 -0.083,-0.319 -0.122,-0.479a20.81,20.81 0 0 1 -0.101,-0.484l-0.089,-0.486c-0.03,-0.161 -0.055,-0.324 -0.09,-0.484c-0.033,-0.161 -0.065,-0.322 -0.104,-0.481a9.8,9.8 0 0 0 -0.191,-0.713c-0.025,-0.078 -0.048,-0.157 -0.074,-0.234c-0.056,-0.154 -0.106,-0.31 -0.171,-0.46c-0.058,-0.153 -0.132,-0.299 -0.202,-0.446l-0.119,-0.214c-0.041,-0.071 -0.088,-0.137 -0.132,-0.206a2.715,2.715 0 0 0 -0.308,-0.376a1.93,1.93 0 0 0 -0.484,-0.36l-0.109,-0.053c-0.074,-0.031 -0.153,-0.052 -0.229,-0.078l-0.175,-0.061l0.268,0.001l0.003,0.001c0.077,0.031 0.156,0.056 0.23,0.092l0.109,0.059a0.594,0.594 0 0 1 0.105,0.065c0.066,0.049 0.138,0.092 0.196,0.15c0.061,0.056 0.125,0.108 0.177,0.171c0.055,0.062 0.113,0.12 0.159,0.188c0.048,0.067 0.102,0.129 0.143,0.2c0.043,0.07 0.09,0.137 0.129,0.209l0.116,0.216c0.069,0.148 0.141,0.295 0.198,0.448c0.064,0.15 0.112,0.306 0.167,0.46c0.046,0.156 0.098,0.311 0.137,0.469l0.062,0.236l0.055,0.238c0.038,0.158 0.068,0.319 0.1,0.478c0.033,0.16 0.057,0.32 0.086,0.48l0.084,0.48c0.031,0.159 0.063,0.319 0.097,0.478c0.037,0.158 0.072,0.317 0.117,0.473c0.02,0.079 0.043,0.157 0.068,0.234c0.024,0.078 0.048,0.155 0.078,0.231l0.042,0.114l0.049,0.112c0.015,0.038 0.033,0.074 0.053,0.11s0.036,0.073 0.059,0.107a1.027,1.027 0 0 0 0.191,0.235c0.016,0.012 0.031,0.026 0.048,0.037s0.073,0.038 0.1,0.069l0.002,-0.002z" stroke-width="0.2"/>
    <path stroke="null" id="svg_8" d="m28.19,23.388s0.92,-0.526 1.104,-2.551c0.263,-2.839 0.736,-3.838 2.235,-4.338l-4.285,0c-0.459,0.077 -0.769,0.329 -1.003,0.823a0.01,0.01 0 0 1 0.001,0.005a0.016,0.016 0 0 1 -0.004,0.007l0.004,0.019c-0.311,0.569 -0.518,1.475 -0.699,2.692c-0.201,1.17 -0.488,2.176 -0.869,2.743c-0.223,0.362 -0.479,0.572 -0.769,0.572l4.285,0.028z" stroke-width="0"/>
    <path stroke="inherit" id="svg_9" d="m26.224,17.364a0.106,0.106 0 0 0 -0.004,-0.019a3.432,3.432 0 0 0 -0.213,0.487l-0.001,0.002c-0.015,0.041 -0.028,0.087 -0.042,0.13a8.708,8.708 0 0 0 -0.151,0.523c-0.111,0.448 -0.207,0.973 -0.296,1.574c-0.165,0.964 -0.389,1.816 -0.674,2.41a3.226,3.226 0 0 1 -0.205,0.391c0.385,-0.574 0.675,-1.591 0.879,-2.775c0.183,-1.231 0.393,-2.148 0.707,-2.724l0,0.001z" stroke-width="0.2"/>
    <path stroke="inherit" id="svg_10" d="m23.57,8.618a0.357,0.357 0 0 0 -0.195,0.078a0.9,0.9 0 0 0 -0.146,0.156c-0.086,0.114 -0.155,0.24 -0.216,0.368c-0.062,0.128 -0.117,0.26 -0.169,0.393s-0.099,0.268 -0.143,0.403a13.868,13.868 0 0 0 -0.245,0.821c-0.075,0.276 -0.145,0.553 -0.21,0.83a68.375,68.375 0 0 0 -0.69,3.357l-0.023,0.128l-0.022,-0.129l-0.002,-0.012l0.046,-0.001l-0.002,0.009l0,-0.008c0.063,0.361 0.131,0.72 0.199,1.081l0.205,1.079c0.139,0.719 0.283,1.438 0.439,2.153c0.078,0.358 0.159,0.715 0.246,1.07s0.18,0.709 0.284,1.06c0.052,0.175 0.107,0.349 0.166,0.522c0.06,0.172 0.124,0.343 0.196,0.51c0.074,0.166 0.154,0.33 0.254,0.479l0.038,0.056l0.042,0.052c0.026,0.036 0.059,0.066 0.089,0.098a0.529,0.529 0 0 0 0.218,0.128l-0.008,-0.001a0.61,0.61 0 0 0 0.338,-0.11c0.102,-0.067 0.189,-0.158 0.266,-0.255s0.144,-0.205 0.204,-0.316c0.03,-0.054 0.06,-0.113 0.085,-0.167l0.074,-0.177c0.026,-0.059 0.045,-0.118 0.068,-0.178c0.021,-0.06 0.045,-0.118 0.063,-0.179c0.039,-0.121 0.079,-0.242 0.112,-0.364c0.036,-0.122 0.067,-0.245 0.098,-0.368s0.057,-0.248 0.087,-0.372l0.076,-0.374l0.069,-0.376l0.14,-0.752c0.022,-0.125 0.055,-0.25 0.082,-0.375l0.085,-0.374c0.013,-0.063 0.031,-0.126 0.049,-0.186l0.053,-0.184c0.036,-0.123 0.069,-0.244 0.113,-0.37l-0.001,0.003l0.091,-0.244c0.016,-0.04 0.035,-0.08 0.052,-0.12l0.053,-0.119l0.035,-0.081l0.017,0.087l0.004,0.02l-0.052,-0.006l0.016,-0.03l-0.002,0.017l-0.095,-0.569c-0.029,-0.189 -0.065,-0.378 -0.1,-0.568l-0.21,-1.134c-0.142,-0.755 -0.288,-1.51 -0.447,-2.262c-0.079,-0.376 -0.163,-0.751 -0.25,-1.125s-0.18,-0.747 -0.285,-1.117c-0.052,-0.185 -0.107,-0.369 -0.168,-0.551s-0.124,-0.363 -0.199,-0.54a3.245,3.245 0 0 0 -0.259,-0.513c-0.027,-0.04 -0.052,-0.081 -0.083,-0.117c-0.015,-0.019 -0.029,-0.038 -0.045,-0.056l-0.05,-0.052a0.538,0.538 0 0 0 -0.242,-0.147l0.001,0l-0.174,-0.001c-0.029,0.001 -0.058,-0.002 -0.087,0.003l-0.022,0.003c-0.007,0.001 -0.015,0.001 -0.021,0.004l-0.041,0.016l0,-0.001l0.153,0.001l-0.002,-0.004zm0.002,0.004l-0.157,0.001l0.044,-0.018c0.007,-0.003 0.014,-0.003 0.022,-0.004l0.021,-0.003c0.029,-0.006 0.058,-0.003 0.087,-0.004l0.175,-0.001a0.55,0.55 0 0 1 0.246,0.147l0.051,0.052l0.046,0.056c0.032,0.037 0.057,0.078 0.084,0.117c0.105,0.161 0.189,0.336 0.265,0.512s0.142,0.358 0.204,0.54c0.062,0.182 0.119,0.366 0.173,0.55c0.216,0.739 0.389,1.489 0.55,2.24s0.31,1.506 0.454,2.262l0.214,1.133c0.035,0.189 0.072,0.377 0.102,0.568l0.096,0.568l0.002,0.01l-0.004,0.008l-0.015,0.03l-0.037,0.073l-0.015,-0.079l-0.003,-0.018l0.052,0.006l-0.051,0.118c-0.017,0.04 -0.035,0.078 -0.051,0.118l-0.089,0.242l-0.001,0.003c-0.039,0.115 -0.074,0.24 -0.108,0.362l-0.053,0.184a2.369,2.369 0 0 0 -0.048,0.184l-0.083,0.372c-0.027,0.125 -0.058,0.248 -0.08,0.373l-0.138,0.753l-0.068,0.377l-0.076,0.376c-0.029,0.125 -0.054,0.25 -0.086,0.374c-0.031,0.124 -0.061,0.248 -0.098,0.371c-0.033,0.124 -0.073,0.246 -0.112,0.368c-0.018,0.061 -0.042,0.121 -0.063,0.182c-0.023,0.06 -0.042,0.122 -0.068,0.18l-0.073,0.177a3.53,3.53 0 0 1 -0.088,0.174c-0.062,0.113 -0.13,0.224 -0.21,0.326s-0.171,0.199 -0.283,0.272a0.689,0.689 0 0 1 -0.379,0.122l-0.004,0l-0.004,-0.001a0.583,0.583 0 0 1 -0.251,-0.147c-0.033,-0.034 -0.068,-0.067 -0.095,-0.105l-0.044,-0.055l-0.039,-0.058c-0.103,-0.156 -0.184,-0.323 -0.258,-0.491s-0.136,-0.342 -0.197,-0.516a13.383,13.383 0 0 1 -0.166,-0.526c-0.103,-0.352 -0.195,-0.708 -0.281,-1.064s-0.167,-0.714 -0.244,-1.072a93.389,93.389 0 0 1 -0.432,-2.156l-0.202,-1.08c-0.066,-0.36 -0.133,-0.721 -0.195,-1.082l-0.001,-0.005l0.001,-0.004l0.001,-0.004l0.027,-0.113l0.019,0.112l0.002,0.013l-0.046,-0.001c0.105,-0.562 0.213,-1.123 0.329,-1.683s0.238,-1.118 0.376,-1.673a26.587,26.587 0 0 1 0.339,-1.24c0.043,-0.136 0.085,-0.273 0.132,-0.408c0.046,-0.136 0.095,-0.27 0.147,-0.403s0.109,-0.265 0.172,-0.393c0.063,-0.128 0.133,-0.254 0.22,-0.367a0.944,0.944 0 0 1 0.148,-0.155a0.357,0.357 0 0 1 0.197,-0.077l-0.002,0z" stroke-width="0.2"/>
    <path stroke="inherit" id="svg_11" d="m26.22,17.345l0.004,-0.007l-0.001,-0.005a0.049,0.049 0 0 1 -0.003,0.007l0.001,0.006l-0.001,-0.001z" stroke-width="0.2"/>
    <path stroke="inherit" id="svg_12" d="m26.006,17.835c-0.014,0.042 -0.029,0.086 -0.042,0.13l0.042,-0.13z" stroke-width="0.2"/>
    <path stroke="inherit" id="svg_13" d="m26.204,17.37l-0.004,-0.019a4.626,4.626 0 0 0 -0.193,0.481a3.55,3.55 0 0 1 0.213,-0.487l-0.001,-0.005l-0.015,0.03z" stroke-width="0.2"/>
    <path stroke="inherit" id="svg_14" d="m24.843,22.472c0.285,-0.594 0.508,-1.447 0.674,-2.41c0.089,-0.601 0.185,-1.126 0.296,-1.574a21.223,21.223 0 0 0 -0.331,1.63c-0.159,0.928 -0.371,1.756 -0.639,2.355l0,-0.001z" stroke-width="0.2"/>
    <path stroke="null" id="svg_15" d="m19.099,23.411c0.684,-0.158 1.261,-2.102 2.233,-7.41c0.051,-0.356 0.126,-0.687 0.178,-1.018l-0.017,-0.098l0.003,-0.012l-0.003,-0.014c0.616,-3.176 1.254,-5.954 1.895,-6.242l-3.786,0a0.267,0.267 0 0 0 -0.108,-0.026l-0.236,0c-0.657,0.157 -1.235,2.076 -2.207,7.41c-0.02,0.121 -0.04,0.228 -0.06,0.342l0.005,0.025c-0.001,0.005 -0.001,0.009 -0.003,0.013l0.003,0.013c-0.408,2.199 -0.836,4.254 -1.265,5.538c-0.26,0.805 -0.521,1.335 -0.78,1.452l4.148,0.027z" stroke-width="0"/>
    <path stroke="inherit" id="svg_16" d="m21.512,14.916l-0.003,0.012l0.017,0.099a0.059,0.059 0 0 0 0.002,-0.013l-0.017,-0.098l0.001,0z" stroke-width="0.2"/>
    <path stroke="inherit" id="svg_17" d="m16.977,16.435c-0.309,1.665 -0.63,3.246 -0.953,4.477c-0.106,0.41 -0.212,0.784 -0.318,1.113c0.432,-1.293 0.863,-3.362 1.274,-5.577l-0.003,-0.013z" stroke-width="0.2"/>
    <path stroke="inherit" id="svg_18" d="m21.51,14.903l0.003,0.014c0.619,-3.218 1.261,-6.01 1.905,-6.299c-0.645,0.29 -1.288,3.087 -1.908,6.285z" stroke-width="0.2"/>
    <path stroke="inherit" id="svg_19" d="m21.533,15.02c0.635,-3.439 1.349,-6.403 2.037,-6.403l-0.153,0c-0.644,0.289 -1.286,3.081 -1.905,6.299l0.017,0.098l0.001,-0.007l0.002,0.013l0.001,0z" stroke-width="0.2"/>
    <path stroke="inherit" id="svg_20" d="m16.972,16.41a139.246,139.246 0 0 0 -0.823,-4.045a28.367,28.367 0 0 0 -0.509,-1.998a8.64,8.64 0 0 0 -0.35,-0.967a2.782,2.782 0 0 0 -0.246,-0.448a1.253,1.253 0 0 0 -0.163,-0.192a0.545,0.545 0 0 0 -0.212,-0.119l0.006,0.001c-0.071,0.001 -0.149,-0.002 -0.215,0.003c-0.017,0.003 -0.038,0.003 -0.052,0.009l-0.044,0.018c-0.015,0.007 -0.029,0.018 -0.043,0.027s-0.028,0.019 -0.041,0.032c-0.105,0.092 -0.184,0.216 -0.254,0.34s-0.13,0.258 -0.185,0.391c-0.056,0.133 -0.105,0.27 -0.154,0.407a19.401,19.401 0 0 0 -0.477,1.676c-0.138,0.565 -0.262,1.133 -0.381,1.703s-0.231,1.14 -0.34,1.712l0,-0.013l0.098,0.546l0.1,0.546l0.203,1.091c0.138,0.727 0.28,1.453 0.435,2.176a39.39,39.39 0 0 0 0.38,1.62c0.047,0.179 0.095,0.357 0.147,0.534c0.051,0.177 0.107,0.353 0.165,0.528c0.061,0.174 0.123,0.348 0.196,0.517s0.154,0.335 0.254,0.487l0.038,0.057l0.042,0.053c0.027,0.037 0.059,0.068 0.091,0.101c0.066,0.06 0.14,0.113 0.225,0.133l-0.005,-0.001c0.017,-0.003 0.034,-0.004 0.051,-0.008c0.016,-0.006 0.036,-0.012 0.048,-0.018a0.422,0.422 0 0 0 0.093,-0.063a0.918,0.918 0 0 0 0.147,-0.168c0.087,-0.125 0.157,-0.262 0.221,-0.4s0.12,-0.282 0.174,-0.427c0.053,-0.144 0.102,-0.29 0.15,-0.437c0.093,-0.293 0.178,-0.59 0.257,-0.887l0.21,-0.9l0.211,-0.901c0.035,-0.15 0.072,-0.3 0.1,-0.451l0.091,-0.453l0.182,-0.907l0.091,-0.453c0.029,-0.151 0.063,-0.302 0.089,-0.454l-0.001,0.002zm0.001,-0.002c-0.025,0.152 -0.057,0.303 -0.085,0.455l-0.087,0.454l-0.174,0.909l-0.087,0.454c-0.027,0.152 -0.062,0.302 -0.096,0.452l-0.203,0.903l-0.102,0.451l-0.104,0.451a19.25,19.25 0 0 1 -0.254,0.89c-0.047,0.147 -0.096,0.294 -0.149,0.439s-0.11,0.289 -0.174,0.43c-0.065,0.14 -0.135,0.28 -0.224,0.409a0.913,0.913 0 0 1 -0.157,0.179c-0.031,0.029 -0.064,0.047 -0.098,0.067c-0.022,0.011 -0.04,0.015 -0.06,0.023c-0.02,0.005 -0.042,0.007 -0.063,0.01l-0.002,0l-0.004,-0.001a0.57,0.57 0 0 1 -0.248,-0.145c-0.033,-0.034 -0.068,-0.067 -0.095,-0.105l-0.044,-0.055l-0.039,-0.058c-0.104,-0.156 -0.185,-0.324 -0.26,-0.495s-0.138,-0.345 -0.199,-0.52a14.161,14.161 0 0 1 -0.317,-1.065a44.65,44.65 0 0 1 -0.386,-1.622a96.348,96.348 0 0 1 -0.442,-2.176l-0.207,-1.091l-0.102,-0.546l-0.096,-0.547l-0.001,-0.006l0.001,-0.007c0.111,-0.571 0.225,-1.142 0.346,-1.712s0.247,-1.138 0.387,-1.704c0.141,-0.565 0.291,-1.129 0.484,-1.68c0.049,-0.138 0.099,-0.275 0.156,-0.409s0.117,-0.268 0.189,-0.396c0.073,-0.127 0.153,-0.254 0.267,-0.354c0.014,-0.013 0.029,-0.025 0.045,-0.035s0.032,-0.022 0.049,-0.031l0.058,-0.022c0.019,-0.007 0.036,-0.006 0.055,-0.009c0.079,-0.005 0.147,-0.001 0.222,-0.002l0.003,0l0.003,0.001a0.6,0.6 0 0 1 0.234,0.131c0.064,0.062 0.121,0.128 0.17,0.201c0.099,0.144 0.179,0.298 0.249,0.457c0.14,0.316 0.249,0.644 0.349,0.974c0.198,0.66 0.354,1.331 0.503,2.003c0.29,1.345 0.537,2.699 0.786,4.053l0.003,-0.003z" stroke-width="0.2"/>
    <path stroke="inherit" id="svg_21" d="m16.977,16.435l0.003,-0.013a0.221,0.221 0 0 0 -0.005,-0.025l-0.002,0.014a0.187,0.187 0 0 1 0.004,0.025l0,-0.001z" stroke-width="0.2"/>
    <path stroke="inherit" id="svg_22" d="m16.956,16.502c-0.303,1.63 -0.616,3.182 -0.932,4.41c0.323,-1.231 0.644,-2.812 0.953,-4.477l-0.004,-0.025l-0.016,0.092l-0.001,0z" stroke-width="0.2"/>
    <path stroke="null" id="svg_23" d="m10.041,23.388c0.684,-0.157 1.233,-2.05 2.206,-7.359c0.051,-0.357 0.126,-0.69 0.179,-1.022l-0.015,-0.083c0.245,-1.276 0.494,-2.486 0.746,-3.497c0.377,-1.546 0.764,-2.635 1.153,-2.809l-4.139,0c-0.657,0.158 -1.235,2.076 -2.234,7.411c-0.068,0.319 -0.119,0.638 -0.182,0.958l0.018,0.022l-0.004,0.022l0.004,0.005c-0.39,2.012 -0.789,3.857 -1.192,5.012c-0.282,0.834 -0.567,1.34 -0.851,1.34l2.939,0l1.372,0z" stroke-width="0"/>
    <path stroke="inherit" id="svg_24" d="m12.453,14.953l-0.005,-0.025a66.44,66.44 0 0 1 0.723,-3.489a69.964,69.964 0 0 0 -0.75,3.515l0.015,0.084a0.313,0.313 0 0 0 0.005,-0.03l0.011,-0.055l0.001,0z" stroke-width="0.2"/>
    <path stroke="inherit" id="svg_25" d="m7.757,17.072c-0.27,1.39 -0.544,2.699 -0.821,3.758c-0.124,0.482 -0.249,0.915 -0.374,1.284c0.405,-1.162 0.807,-3.015 1.198,-5.037a0.018,0.018 0 0 1 -0.004,-0.005l0.001,0z" stroke-width="0.2"/>
    <path stroke="inherit" id="svg_26" d="m13.172,11.44c0.418,-1.683 0.843,-2.823 1.267,-2.823l-0.108,0c-0.39,0.175 -0.78,1.269 -1.159,2.823z" stroke-width="0.2"/>
    <path stroke="inherit" id="svg_27" d="m14.476,8.617l-0.037,0c-0.424,0 -0.849,1.14 -1.267,2.823a64.454,64.454 0 0 0 -0.723,3.489l0.005,0.025c0.657,-3.41 1.34,-6.336 2.023,-6.336l-0.001,-0.001z" stroke-width="0.2"/>
    <path stroke="inherit" id="svg_28" d="m4.75,20.716l0.065,0.353c0.02,0.118 0.047,0.234 0.071,0.352s0.051,0.234 0.08,0.35c0.027,0.117 0.059,0.232 0.092,0.347c0.03,0.116 0.071,0.228 0.107,0.342l0.064,0.168c0.02,0.056 0.048,0.11 0.071,0.164s0.055,0.106 0.081,0.159c0.014,0.027 0.032,0.05 0.047,0.076s0.032,0.05 0.051,0.073s0.076,0.092 0.122,0.129c0.022,0.02 0.048,0.035 0.073,0.051s0.053,0.027 0.076,0.052l-0.006,-0.003c0.067,-0.002 0.131,-0.031 0.184,-0.072s0.099,-0.092 0.141,-0.147c0.082,-0.109 0.149,-0.229 0.208,-0.352c0.119,-0.246 0.214,-0.504 0.3,-0.764a16.243,16.243 0 0 0 0.34,-1.185l0.091,-0.401l0.183,-0.803l0.092,-0.401c0.032,-0.134 0.055,-0.269 0.084,-0.403l0.324,-1.613l0.006,0.028l-0.012,-0.016l-0.01,-0.014l0.003,-0.016l0.024,-0.124l0.008,0.03l-0.108,-0.123c-0.04,-0.037 -0.077,-0.077 -0.119,-0.111c-0.043,-0.032 -0.083,-0.07 -0.13,-0.096l-0.068,-0.043l-0.073,-0.034c-0.047,-0.025 -0.1,-0.038 -0.151,-0.056c-0.052,-0.015 -0.105,-0.024 -0.158,-0.035c-0.053,-0.005 -0.109,-0.014 -0.16,-0.015l-1.499,-0.003l-2.665,-0.014l0.005,-0.037c0.096,0.04 0.197,0.068 0.286,0.124c0.045,0.026 0.093,0.047 0.135,0.078l0.126,0.091c0.044,0.028 0.079,0.067 0.118,0.101c0.037,0.036 0.079,0.067 0.112,0.107c0.068,0.078 0.142,0.151 0.2,0.236l0.092,0.124c0.029,0.043 0.055,0.087 0.083,0.131s0.056,0.086 0.081,0.132l0.073,0.136c0.051,0.09 0.092,0.184 0.135,0.278c0.045,0.093 0.081,0.189 0.12,0.285c0.04,0.095 0.073,0.192 0.107,0.29l0.051,0.146l0.045,0.148c0.029,0.099 0.061,0.196 0.086,0.296l0.078,0.299l0.069,0.301c0.024,0.1 0.041,0.201 0.062,0.302s0.04,0.202 0.057,0.303l0.052,0.304l-0.002,-0.005zm0.002,0.005l-0.054,-0.304c-0.017,-0.101 -0.037,-0.202 -0.058,-0.303s-0.039,-0.202 -0.064,-0.302l-0.07,-0.3l-0.079,-0.298c-0.025,-0.1 -0.058,-0.197 -0.087,-0.296l-0.045,-0.147l-0.051,-0.145c-0.034,-0.097 -0.067,-0.194 -0.108,-0.289c-0.039,-0.095 -0.075,-0.191 -0.121,-0.283c-0.044,-0.093 -0.086,-0.187 -0.137,-0.276l-0.074,-0.135c-0.025,-0.045 -0.055,-0.087 -0.082,-0.13s-0.055,-0.087 -0.084,-0.129l-0.093,-0.122c-0.059,-0.084 -0.133,-0.155 -0.201,-0.232c-0.034,-0.039 -0.075,-0.069 -0.112,-0.104c-0.039,-0.033 -0.074,-0.071 -0.117,-0.098l-0.125,-0.088c-0.041,-0.03 -0.089,-0.049 -0.133,-0.075c-0.087,-0.053 -0.187,-0.08 -0.281,-0.118l-0.089,-0.036l4.258,-0.018c0.06,0.001 0.114,0.01 0.171,0.015c0.056,0.011 0.112,0.02 0.167,0.036c0.054,0.018 0.11,0.032 0.161,0.059l0.078,0.036l0.073,0.045c0.051,0.028 0.093,0.067 0.138,0.101c0.044,0.036 0.083,0.078 0.124,0.117l0.123,0.14l-0.003,0.018l-0.024,0.125l-0.007,-0.03l0.013,0.019l0.009,0.013l-0.003,0.015l-0.332,1.614c-0.029,0.134 -0.053,0.27 -0.085,0.403l-0.095,0.401l-0.287,1.201c-0.035,0.134 -0.072,0.265 -0.109,0.398c-0.075,0.264 -0.156,0.527 -0.245,0.787s-0.188,0.517 -0.31,0.764c-0.062,0.123 -0.13,0.244 -0.214,0.353c-0.042,0.055 -0.09,0.106 -0.145,0.148s-0.123,0.072 -0.194,0.073l-0.003,0l-0.003,-0.003c-0.018,-0.02 -0.046,-0.033 -0.071,-0.049s-0.051,-0.032 -0.074,-0.053a0.727,0.727 0 0 1 -0.123,-0.131c-0.019,-0.023 -0.036,-0.048 -0.051,-0.074s-0.033,-0.05 -0.047,-0.077c-0.027,-0.054 -0.059,-0.105 -0.081,-0.161s-0.051,-0.109 -0.07,-0.165l-0.063,-0.168c-0.035,-0.114 -0.076,-0.227 -0.106,-0.343a7.071,7.071 0 0 1 -0.09,-0.347c-0.028,-0.116 -0.056,-0.233 -0.079,-0.35s-0.05,-0.234 -0.07,-0.352l-0.064,-0.353l-0.002,0.003z" stroke-width="0.2"/>
    <path stroke="inherit" id="svg_29" d="m7.757,17.072l0.004,-0.022l-0.018,-0.022l-0.004,0.022l0.018,0.022z" stroke-width="0.2"/>
    <path stroke="inherit" id="svg_30" d="m7.715,17.175l0.012,0.018c-0.26,1.339 -0.524,2.601 -0.791,3.638c0.277,-1.059 0.551,-2.368 0.821,-3.758l-0.018,-0.022l-0.024,0.125l0,-0.001z" stroke-width="0.2"/>
    <metadata stroke="null">Vorillaz</metadata>
</svg>